<?xml version="1.0" encoding="utf-8"?>
<!-- Generator: Adobe Illustrator 22.1.0, SVG Export Plug-In . SVG Version: 6.00 Build 0)  -->
<svg version="1.1" id="Ebene_1" xmlns="http://www.w3.org/2000/svg" xmlns:xlink="http://www.w3.org/1999/xlink" x="0px" y="0px"
	 width="215px" height="60px" viewBox="0 0 215 60" style="enable-background:new 0 0 215 60;" xml:space="preserve">
<style type="text/css">
	.st0{opacity:0.6;enable-background:new    ;}
	.st1{fill:#FFFFFF;}
	.st2{opacity:0.6;}
	.st3{fill:none;}
</style>
<g class="st0">
	<path class="st1" d="M18.629395,39.821404V23.334099h3.561035v1.022461c0,0,2.407227-1.384766,4.550781-1.384766
		c4.583496,0,5.70459,2.604492,5.70459,8.012695v8.836914h-3.561523v-8.738281c0-3.296875-0.428711-4.913086-2.93457-4.913086
		c-1.912598,0-3.726074,0.857422-3.726074,0.857422v12.793945H18.629395z"/>
	<path class="st1" d="M49.29248,36.754997l0.065918,2.670898c0,0-3.758789,0.757813-6.660645,0.757813
		c-4.946289,0-6.858887-2.637695-6.858887-8.441406c0-6.03418,2.60498-8.770508,7.155762-8.770508
		c4.616211,0,6.924316,2.407227,6.924316,7.550781l-0.230957,2.572266h-10.22168
		c0.032715,2.637695,1.021973,3.957031,3.758789,3.957031C45.830078,37.051872,49.29248,36.754997,49.29248,36.754997z
		 M46.390625,30.32531c0-3.297852-0.989258-4.385742-3.395996-4.385742c-2.44043,0-3.52832,1.219727-3.561523,4.385742H46.390625z"
		/>
	<path class="st1" d="M55.35791,23.334099l3.165527,13.420898h1.055176l3.297363-13.420898h3.660156l-4.286621,16.487305h-6.396973
		l-4.253906-16.487305H55.35791z"/>
	<path class="st1" d="M81.734863,36.754997l0.065918,2.670898c0,0-3.758789,0.757813-6.660645,0.757813
		c-4.946289,0-6.858887-2.637695-6.858887-8.441406c0-6.03418,2.60498-8.770508,7.155762-8.770508
		c4.616211,0,6.924316,2.407227,6.924316,7.550781l-0.230957,2.572266h-10.22168
		c0.032715,2.637695,1.021973,3.957031,3.758789,3.957031C78.272461,37.051872,81.734863,36.754997,81.734863,36.754997z
		 M78.833008,30.32531c0-3.297852-0.989258-4.385742-3.395996-4.385742c-2.44043,0-3.52832,1.219727-3.561523,4.385742H78.833008z"
		/>
	<path class="st1" d="M85.821289,23.334099h3.561035v1.978516c0,0,2.803223-1.813477,5.605957-2.34082v3.59375
		c-3.000977,0.59375-5.572754,1.748047-5.572754,1.748047v11.507813h-3.594238V23.334099z"/>
	<path class="st1" d="M97.723145,23.334099h3.561035v1.022461c0,0,2.275391-1.384766,4.253906-1.384766
		c4.286133,0,6.297852,2.439453,6.297852,8.441406c0,6.791992-2.308594,8.770508-7.38623,8.770508
		c-1.351563,0-2.93457-0.263672-3.132324-0.295898v7.023438h-3.594238V23.334099z M101.317383,27.092888v9.727539
		c0.165039,0.033203,1.747559,0.263672,2.901855,0.263672c3.066406,0,3.956543-1.615234,3.956543-5.670898
		c0-3.858398-1.219727-5.243164-3.26416-5.243164C103.164063,26.170036,101.317383,27.092888,101.317383,27.092888z"/>
	<path class="st1" d="M115.427734,16.739372h3.59375v3.791992h-3.59375V16.739372z M115.427734,23.334099h3.59375v16.487305
		h-3.59375V23.334099z"/>
	<path class="st1" d="M123.570313,16.4757h3.59375v23.345703h-3.59375V16.4757z"/>
	<path class="st1" d="M144.375977,36.754997l0.06543,2.670898c0,0-3.757813,0.757813-6.660156,0.757813
		c-4.946289,0-6.859375-2.637695-6.859375-8.441406c0-6.03418,2.605469-8.770508,7.15625-8.770508
		c4.616211,0,6.923828,2.407227,6.923828,7.550781l-0.230469,2.572266h-10.22168
		c0.032227,2.637695,1.022461,3.957031,3.758789,3.957031C140.914063,37.051872,144.375977,36.754997,144.375977,36.754997z
		 M141.474609,30.32531c0-3.297852-0.990234-4.385742-3.396484-4.385742c-2.44043,0-3.52832,1.219727-3.561523,4.385742H141.474609z
		"/>
</g>
<g id="Bildmaterial_2_1_" class="st2">
	<g>
		<polygon class="st3" points="188.089828,24.799585 176.144287,17.745535 164.198746,24.799585 176.144287,32.471508 		"/>
		<path class="st1" d="M174.49176,35.044563l1.652527,1.061325l1.652512-1.061325l11.945541-7.671915l4.176498-2.682322
			l-4.274063-2.523924l-11.945557-7.054048l-1.554932-0.918218l-1.554947,0.918218l-11.945541,7.054048l-4.274078,2.523924
			l4.176498,2.682322L174.49176,35.044563z M176.144287,17.745535l11.945541,7.05405l-11.945541,7.671923l-11.945541-7.671923
			L176.144287,17.745535z"/>
		<polygon class="st1" points="161.442535,29.047764 161.442657,29.047846 161.443176,29.047544 		"/>
		<polygon class="st1" points="162.62738,33.496861 174.572922,41.168781 176.225449,42.230099 177.877975,41.168781 
			189.823517,33.496861 194,30.814539 190.951431,29.121666 176.225449,38.595718 161.442657,29.047846 158.450897,30.814539 		"/>
		<polygon class="st1" points="161.442535,35.123516 161.442657,35.123596 161.443176,35.123295 		"/>
		<polygon class="st1" points="176.225449,44.671463 161.442657,35.123596 158.450897,36.890289 162.62738,39.572609 
			174.572922,47.244526 176.225449,48.305851 177.877975,47.244526 189.823517,39.572609 194,36.890289 190.951431,35.197418 		"/>
	</g>
</g>
</svg>
