<?xml version="1.0" encoding="utf-8"?>
<!-- Generator: Adobe Illustrator 22.1.0, SVG Export Plug-In . SVG Version: 6.00 Build 0)  -->
<svg version="1.1" id="Ebene_1" xmlns="http://www.w3.org/2000/svg" xmlns:xlink="http://www.w3.org/1999/xlink" x="0px" y="0px"
	 width="184px" height="38.348839px" viewBox="0 0 184 38.348839" style="enable-background:new 0 0 184 38.348839;"
	 xml:space="preserve">
<style type="text/css">
	.st0{enable-background:new    ;}
	.st1{fill:#FFFFFF;}
</style>
<g class="st0">
	<path class="st1" d="M4.129395,27.995232V11.508416H7.69043v1.022461c0,0,2.407227-1.384766,4.550781-1.384766
		c4.583496,0,5.70459,2.604492,5.70459,8.012694v8.836426h-3.561523v-8.737793c0-3.296874-0.428711-4.913085-2.93457-4.913085
		c-1.912598,0-3.726074,0.857422-3.726074,0.857422v12.793456H4.129395z"/>
	<path class="st1" d="M34.79248,24.928825l0.065918,2.671875c0,0-3.758789,0.757813-6.660645,0.757813
		c-4.946289,0-6.858887-2.638672-6.858887-8.441406c0-6.034667,2.60498-8.770995,7.155762-8.770995
		c4.616211,0,6.924316,2.407227,6.924316,7.55078l-0.230957,2.571777h-10.22168
		c0.032715,2.638672,1.021973,3.957031,3.758789,3.957031C31.330078,25.2257,34.79248,24.928825,34.79248,24.928825z
		 M31.890625,18.499626c0-3.297851-0.989258-4.385741-3.395996-4.385741c-2.44043,0-3.52832,1.219727-3.561523,4.385741H31.890625z"
		/>
	<path class="st1" d="M40.85791,11.508416l3.165527,13.420409h1.055176l3.297363-13.420409h3.660156l-4.286621,16.486816h-6.396973
		l-4.253906-16.486816H40.85791z"/>
	<path class="st1" d="M67.234863,24.928825l0.065918,2.671875c0,0-3.758789,0.757813-6.660645,0.757813
		c-4.946289,0-6.858887-2.638672-6.858887-8.441406c0-6.034667,2.60498-8.770995,7.155762-8.770995
		c4.616211,0,6.924316,2.407227,6.924316,7.55078l-0.230957,2.571777h-10.22168
		c0.032715,2.638672,1.021973,3.957031,3.758789,3.957031C63.772461,25.2257,67.234863,24.928825,67.234863,24.928825z
		 M64.333008,18.499626c0-3.297851-0.989258-4.385741-3.395996-4.385741c-2.44043,0-3.52832,1.219727-3.561523,4.385741H64.333008z"
		/>
	<path class="st1" d="M71.321289,11.508416h3.561035v1.978516c0,0,2.803223-1.813477,5.605957-2.34082v3.59375
		c-3.000977,0.59375-5.572754,1.748046-5.572754,1.748046v11.507324h-3.594238V11.508416z"/>
	<path class="st1" d="M83.223145,11.508416h3.561035v1.022461c0,0,2.275391-1.384766,4.253906-1.384766
		c4.286133,0,6.297852,2.439453,6.297852,8.441405c0,6.79248-2.308594,8.770996-7.38623,8.770996
		c-1.351563,0-2.93457-0.263672-3.132324-0.296875v7.023438h-3.594238V11.508416z M86.817383,15.267205v9.728026
		c0.165039,0.033203,1.747559,0.263672,2.901855,0.263672c3.066406,0,3.956543-1.615234,3.956543-5.671387
		c0-3.858397-1.219727-5.243163-3.26416-5.243163C88.664063,14.344354,86.817383,15.267205,86.817383,15.267205z"/>
	<path class="st1" d="M100.927734,4.91369h3.59375v3.791992h-3.59375V4.91369z M100.927734,11.508416h3.59375v16.486816h-3.59375
		V11.508416z"/>
	<path class="st1" d="M109.070313,4.650018h3.59375v23.345215h-3.59375V4.650018z"/>
	<path class="st1" d="M129.875977,24.928825l0.06543,2.671875c0,0-3.757813,0.757813-6.660156,0.757813
		c-4.946289,0-6.859375-2.638672-6.859375-8.441406c0-6.034667,2.605469-8.770995,7.15625-8.770995
		c4.616211,0,6.923828,2.407227,6.923828,7.55078l-0.230469,2.571777h-10.22168
		c0.032227,2.638672,1.022461,3.957031,3.758789,3.957031C126.414063,25.2257,129.875977,24.928825,129.875977,24.928825z
		 M126.974609,18.499626c0-3.297851-0.990234-4.385741-3.396484-4.385741c-2.44043,0-3.52832,1.219727-3.561523,4.385741H126.974609
		z"/>
</g>
<g id="Bildmaterial_2_1_">
	<g>
		<path class="st1" d="M159.99176,23.218983l1.652527,1.061323l1.652512-1.061323l11.945541-7.671915l4.176498-2.682321
			l-4.274063-2.523924l-11.945557-7.05405l-1.554932-0.918217l-1.554947,0.918217l-11.945541,7.05405l-4.274078,2.523924
			l4.176498,2.682322L159.99176,23.218983z M161.644287,5.919954l11.945541,7.054049l-11.945541,7.671924l-11.945541-7.671924
			L161.644287,5.919954z"/>
		<polygon class="st1" points="146.942535,17.222183 146.942657,17.222263 146.943176,17.221962 		"/>
		<polygon class="st1" points="148.12738,21.671278 160.072922,29.343201 161.725449,30.404516 163.377975,29.343201 
			175.323517,21.671278 179.5,18.988956 176.451431,17.296085 161.725449,26.770138 146.942657,17.222263 143.950897,18.988956 		
			"/>
		<polygon class="st1" points="146.942535,23.297934 146.942657,23.298016 146.943176,23.297714 		"/>
		<polygon class="st1" points="161.725449,32.845882 146.942657,23.298016 143.950897,25.064709 148.12738,27.747028 
			160.072922,35.418945 161.725449,36.480267 163.377975,35.418945 175.323517,27.747028 179.5,25.064709 176.451431,23.371836 		
			"/>
	</g>
</g>
</svg>
